<svg width="300" height="300" xmlns="http://www.w3.org/2000/svg">
 <!-- Created with Method Draw - http://github.com/duopixel/Method-Draw/ -->
 <g>
  <title>background</title>
 </g>
 <g>
  <title>Layer 1</title>
  <g stroke="null" transform="matrix(0.2521755709527738,0,0,0.2521755709527738,-7218.787223453448,-5401.695180098991) " id="svg_5">
   <g stroke="null" id="svg_4">
    <path stroke="null" id="svg_1" d="m28810.27006,21740.84883c-17.4,-18.7 -13.4,-47.1 15.4,-50c-7.8,-21.2 -5.7,-31.8 12.7,-46.2c17.6,-13.8 36.1,-26.6 55.1,-38.3c19.4,-12 31.4,-10 47.8,5.5c15.6,14.7 30.9,29.8 46,44.9c3.2,3.2 5.8,4.1 10.3,2.8c105.7,-28.5 213.2,-35.8 321.8,-23.3c39.3,4.5 78,13.8 116.9,21.3c5,1 8,0.2 11.6,-3.3c15.6,-15.4 31.5,-30.5 47.2,-45.9c9.7,-9.5 21,-11.5 33.3,-6.9c5.9,2.2 11.8,5.1 17.1,8.6c14,9.2 27.7,18.8 41.5,28.3c3.8,2.7 7.4,5.7 10.8,8.9c15.2,14.5 17.3,24.3 9.3,43.4c26.6,8.1 33.4,24.4 18.7,46.4c8,5.5 16.1,10.9 24,16.5c50.4,36 93.2,78.9 122.4,134.2c17.4,32.9 27.9,68.1 30.4,105.1c7.7,114.8 -30.7,211.7 -116.2,288.9c-65.6,59.1 -143.3,96 -227.7,119.6c-54.6,15.2 -110.2,24 -166.7,27.9c-95,6.5 -189.2,1 -282,-21.2c-71,-17 -138.2,-43.4 -199.2,-84.2c-65.9,-44.2 -119,-99.8 -148.5,-174.7c-27.5,-69.8 -31.7,-141.7 -11.3,-213.9c15.2,-54 46.8,-98.8 87.5,-136.6c21.4,-19.9 45.5,-36.9 68.4,-55.2c1.1,-0.9 2.3,-1.7 3.4,-2.6zm713.7,-34.4c7.7,1.9 15.5,4.3 23.4,5.4c4,0.6 9.5,0.3 12.2,-2.1c9.5,-8.1 18.9,-16.5 26.9,-26.1c8.1,-9.8 7.9,-13.5 -2.5,-21.4c-18.6,-14.1 -37.9,-27.3 -57.5,-39.9c-9.1,-5.9 -12.1,-4.7 -20.1,3.2c-19.6,19.1 -38.9,38.4 -58.6,57.5c-36.1,35 -66.3,74.2 -86.8,120.4c-27.6,62.4 -54.9,124.9 -82.3,187.4c-11.4,25.9 -23.1,51.7 -33.7,78c-7.9,19.6 -14.3,39.9 -14,61.6c0.3,21.3 10.4,36.9 30.7,42.9c12.6,3.7 26,5.5 39.2,6.5c63.9,5.3 127.7,11.4 192,7.7c53.5,-3.1 106.6,-8.8 158.9,-20.6c8.3,-1.9 17.1,-3.2 25.6,-2.8c13.7,0.5 24.1,7.6 30.4,20.5c1.4,-1.3 2.2,-1.9 2.8,-2.7c23.4,-26.5 41.9,-55.9 54.7,-88.9c9.9,-25.6 12.1,-52.7 15.9,-79.5c0.7,-5 -2.3,-5.5 -6.1,-6.1c-43.6,-6.3 -87.1,-4.4 -130.5,1.5c-74.4,10.2 -146,30.5 -215.7,58.3c-13.6,5.4 -27,11.3 -40.9,17.2c0.1,-1.4 -0.1,-2.2 0.2,-2.8c14.9,-31 17.4,-64.5 18.5,-98c0.8,-24.1 -0.3,-48.3 -1,-72.4c-1,-36.3 7.3,-70.9 19.4,-104.7c4,-11.1 8.3,-22.2 13.5,-32.7c5.3,-10.7 13.8,-15.4 24,-13c18.9,4.5 36.4,-0.1 53,-8c23.4,-11.2 47.9,-17.7 73.3,-21.7c6.7,-1 13.4,-3.2 19.4,-6.4c2.5,-1.3 3.4,-6.5 3.7,-10.1c0.1,-0.8 -5.5,-3.5 -8,-3c-12.9,2.9 -26.3,5 -38.2,10.3c-9.8,4.4 -18.2,6.6 -27.9,1.6c-1.7,-0.9 -3.7,-1.3 -5.5,-2.1c-9.6,-4.1 -17.5,-2.1 -24.4,5.9c-5,5.8 -10.4,11.3 -16.3,16c-7.3,5.9 -14.2,6 -21.5,1.2c2.4,-2 4.8,-3.8 6.9,-5.8c12.5,-12.9 25.1,-25.7 37.3,-38.9c6,-6.5 6.7,-14 1.8,-21.7c-2,-3.1 -3.6,-6.4 -5.3,-9.7c0.6,-0.5 1.1,-1 1.7,-1.4c6.4,5.1 12.8,10.3 20.7,16.6c3.9,-7.4 7.6,-14.4 11.6,-22c0.5,5.3 1.3,10.4 1.3,15.4c0,7.2 5.5,7.1 9.4,7.5c-2.8,3.6 -5.4,7.1 -8.2,10.8c-14.8,-9 -19.6,-7.2 -23.4,11.1zm-795.3,471.8c11,-11.4 19.5,-15.1 34.4,-14.2c6.6,0.4 13.2,1.7 19.6,3.2c60.4,13.4 121.6,21.1 183.3,21c51.7,-0.1 103.4,-4.3 155,-7.4c16.4,-1 33,-3 48.8,-7.1c21,-5.3 31.4,-21 31.8,-42.7c0.4,-19.4 -4.4,-37.8 -11.4,-55.4c-11.5,-28.8 -24.2,-57.1 -36.5,-85.6c-23.9,-55.1 -47.8,-110.3 -72,-165.3c-15.4,-35 -31.6,-70.1 -57.6,-98.6c-32,-35.1 -66.2,-68.2 -99.3,-102.3c-4.9,-5 -10.2,-5.4 -16.1,-2.6c-3.5,1.7 -7.1,3.5 -10.4,5.7c-12.3,8.2 -24.6,16.4 -36.6,25c-6.2,4.4 -11.8,9.6 -17.4,14.8c-4.1,3.8 -4.8,8.6 -0.9,13.2c6.6,7.6 12.8,15.6 20.1,22.5c13,12.2 29.8,12.9 45.2,2.8c-3.7,-16.4 -6.5,-17.5 -22.9,-10.5c-3.4,-3.8 -6.4,-7.1 -9.3,-10.4c7.8,1.4 10.2,-2.9 10.1,-10.1c0,-4 0.8,-8.1 1.2,-12c3.9,7 7.8,14 11.7,20.9c8,-6.2 14.3,-11.1 20.6,-16c0.5,0.5 1,1.1 1.5,1.6c-0.9,1.7 -1.6,3.4 -2.6,5c-8.1,13.2 -8.2,18 2.1,29.6c10.2,11.4 21.2,22 32,32.8c3,3 6.7,5.4 11.2,9c-9.5,4.1 -16.1,3.4 -21.7,-0.8c-6,-4.6 -11.6,-9.9 -16.8,-15.4c-10.4,-10.9 -13.5,-12.6 -27.1,-6.6c-12.7,5.7 -23.3,3.9 -35.6,-2.1c-10.7,-5.2 -23.5,-6.3 -35.5,-8.6c-2.2,-0.4 -6.9,1.8 -7.1,3.3c-0.4,2.9 0.8,6.8 2.7,9.1c1.8,2.3 5.3,3.6 8.3,4.4c5,1.4 10.1,2.3 15.2,3.1c22.9,3.7 45.2,9.3 66.3,19.4c18.2,8.8 37,14.5 57.9,9.7c9.8,-2.3 17.5,2.8 22.1,11.3c4.3,8 7.7,16.5 10.9,25c13.9,36.4 24,73.5 22.9,113c-0.7,24.6 -1.6,49.3 -0.9,73.9c0.9,33.1 3.7,66 18.1,96.7c0.5,1 0.5,2.2 1,4.2c-2.1,-0.8 -3.5,-1.1 -4.7,-1.7c-71.3,-33.8 -145.9,-57 -223.6,-69.9c-48.6,-8.1 -97.5,-10.6 -146.6,-3.8c-5.6,0.8 -7.2,2.8 -7.3,8.4c-1.1,34.8 9.4,66.6 24,97.4c11.1,22.8 25.1,43.5 41.9,63.1zm488.1,-17.8c-3.7,5.1 -6.6,10 -10.3,14.1c-13.5,14.8 -31.2,21.7 -50.5,23.4c-46.6,4 -93.3,7.2 -140.1,10.3c-37.7,2.5 -75.4,1 -113,-2.7c-45.1,-4.4 -90.1,-9.8 -134.4,-20.2c-5.4,-1.3 -11.9,-0.6 -17.3,1c-6.7,1.9 -7.8,8.2 -2.8,12.5c20.4,17.4 40,36 61.8,51.5c47.7,34 100.9,57.3 156.5,75.6c70.8,23.2 143.5,35.3 217.7,38.3c77.7,3.1 154.6,-3.3 230.5,-21.2c66.9,-15.8 130.5,-39.7 189.8,-74.7c30.2,-17.8 58.2,-38.8 83.6,-63.1c3.5,-3.3 4.1,-5.7 1.7,-10c-5.3,-9.7 -11.3,-12.9 -24.1,-10c-62.3,13.8 -125.3,21.7 -189,23.7c-66.2,2 -132,-4.1 -197.8,-10.5c-26.2,-2.8 -49.2,-12.4 -62.3,-38zm-207.1,-481.8c3.1,3.3 5,5.5 7,7.5c28.4,28 51.2,60.3 67.6,96.3c39,85.6 76.5,171.9 114.4,258c6.7,15.2 11.9,31 17.8,46.5c0.3,-0.2 0.9,-0.4 1,-0.8c10.5,-26.3 20.3,-52.8 31.5,-78.8c27.8,-64.7 56.1,-129.2 84.5,-193.7c17.3,-39.4 37.8,-77 66.2,-109.7c7.9,-9 16.3,-17.6 25.2,-27.4c-138.9,-32.6 -276.3,-32.2 -415.2,2.1zm769.4,307.7c0,-0.9 0.1,-1.9 0,-2.8c-4.2,-36 -16,-69.5 -34.7,-100.5c-34,-56.4 -81.9,-98.4 -137.7,-132.3c-1.5,-0.9 -3.8,-1.4 -5.5,-1.1c-25.1,3.8 -49.7,9.1 -73.1,19.8c-21,9.6 -42.5,17.4 -66.4,11.6c-1.6,-0.4 -4.8,2 -5.8,3.9c-3,5.9 -5.3,12.2 -7.7,18.4c-14.9,38.5 -24,77.6 -21.5,119.6c1.9,30.6 -0.6,61.5 -1.7,92.3c-0.4,10.6 -2.5,21.2 -3.8,32.1c1.5,-0.3 2.2,-0.3 2.9,-0.5c48.2,-19 97.6,-34.1 148.1,-45.7c47.5,-10.9 95.5,-17.8 144.2,-17.9c20.8,0 41.4,2 62.7,3.1zm-767.7,60.6c0.1,-1.2 0.2,-1.9 0.1,-2.6c-7.3,-41.8 -8.1,-84 -5.4,-126.1c3,-47.3 -11.2,-90.5 -28.8,-133.1c-1.3,-3.3 -3,-5.1 -7.2,-4c-14.8,3.8 -29.4,1.7 -43.6,-3.2c-21.3,-7.4 -42.4,-15.8 -64,-22.5c-10.2,-3.2 -21.4,-8.1 -32,-1.5c-41.5,25.8 -78.8,56.7 -109.2,95.2c-30.2,38.3 -50.2,81.1 -57.2,129.7c-0.5,3.5 -0.4,7 -0.6,10.6c122.2,-15.9 235.6,14.9 347.9,57.5z" class="st0"/>
    <path stroke="null" id="svg_2" d="m29523.97006,21706.44883c3.8,-18.3 8.6,-20.1 23.5,-11.2c2.8,-3.7 5.4,-7.1 8.2,-10.8c-3.9,-0.4 -9.3,-0.3 -9.4,-7.5c0,-5 -0.8,-10.1 -1.3,-15.4c-4,7.6 -7.7,14.6 -11.6,22c-7.9,-6.3 -14.3,-11.5 -20.7,-16.6c-0.6,0.5 -1.1,1 -1.7,1.4c1.8,3.2 3.4,6.6 5.3,9.7c4.9,7.8 4.2,15.3 -1.8,21.7c-12.2,13.2 -24.8,26 -37.3,38.9c-2,2.1 -4.5,3.8 -6.9,5.8c7.3,4.8 14.2,4.7 21.5,-1.2c5.9,-4.8 11.3,-10.3 16.3,-16c6.9,-8 14.8,-10 24.4,-5.9c1.8,0.8 3.8,1.2 5.5,2.1c9.7,5.1 18.1,2.8 27.9,-1.6c11.9,-5.3 25.3,-7.5 38.2,-10.3c2.5,-0.5 8.1,2.1 8,3c-0.3,3.5 -1.2,8.7 -3.7,10.1c-5.9,3.2 -12.7,5.4 -19.4,6.4c-25.4,4 -50,10.5 -73.3,21.7c-16.6,7.9 -34.1,12.5 -53,8c-10.3,-2.4 -18.8,2.3 -24,13c-5.2,10.6 -9.6,21.6 -13.5,32.7c-12.1,33.8 -20.4,68.4 -19.4,104.7c0.7,24.1 1.8,48.3 1,72.4c-1.1,33.5 -3.6,67 -18.5,98c-0.3,0.6 -0.1,1.4 -0.2,2.8c13.9,-5.9 27.3,-11.8 40.9,-17.2c69.6,-27.7 141.3,-48.1 215.7,-58.3c43.4,-5.9 86.9,-7.8 130.5,-1.5c3.8,0.5 6.8,1.1 6.1,6.1c-3.8,26.8 -6,53.9 -15.9,79.5c-12.8,33 -31.4,62.4 -54.7,88.9c-0.6,0.7 -1.4,1.3 -2.8,2.7c-6.3,-12.9 -16.7,-20 -30.4,-20.5c-8.5,-0.3 -17.2,0.9 -25.6,2.8c-52.3,11.9 -105.5,17.6 -158.9,20.6c-64.2,3.7 -128.1,-2.5 -192,-7.7c-13.2,-1.1 -26.6,-2.8 -39.2,-6.5c-20.4,-6 -30.4,-21.6 -30.7,-42.9c-0.3,-21.7 6,-41.9 14,-61.6c10.6,-26.3 22.4,-52.1 33.7,-78c27.4,-62.5 54.7,-125 82.3,-187.4c20.4,-46.2 50.6,-85.5 86.8,-120.4c19.7,-19 39,-38.4 58.6,-57.5c8.1,-7.9 11,-9 20.1,-3.2c19.6,12.7 39,25.8 57.5,39.9c10.4,7.9 10.6,11.6 2.5,21.4c-7.9,9.6 -17.3,18 -26.9,26.1c-2.7,2.3 -8.2,2.6 -12.2,2.1c-8,-1 -15.7,-3.4 -23.5,-5.3zm-760.9,457.5c6.6,0.4 13.2,1.7 19.6,3.2c60.4,13.4 121.6,21.1 183.3,21c51.7,-0.1 103.4,-4.3 155,-7.4c16.4,-1 33,-3 48.8,-7.1c21,-5.3 31.4,-21 31.8,-42.7c0.4,-19.4 -4.4,-37.8 -11.4,-55.4c-11.5,-28.8 -24.2,-57.1 -36.5,-85.6c-23.9,-55.1 -47.8,-110.3 -72,-165.3c-15.4,-35 -31.6,-70.1 -57.6,-98.6c-32,-35.1 -66.2,-68.2 -99.3,-102.3c-4.9,-5 -10.2,-5.4 -16.1,-2.6c-3.5,1.7 -7.1,3.5 -10.4,5.7c-12.3,8.2 -24.6,16.4 -36.6,25c-6.2,4.4 -11.8,9.6 -17.4,14.8c-4.1,3.8 -4.8,8.6 -0.9,13.2c6.6,7.6 12.8,15.6 20.1,22.5c13,12.2 29.8,12.9 45.2,2.8c-3.7,-16.4 -6.5,-17.5 -22.9,-10.5c-3.4,-3.8 -6.4,-7.1 -9.3,-10.4c7.8,1.4 10.2,-2.9 10.1,-10.1c0,-4 0.8,-8.1 1.2,-12c3.9,7 7.8,14 11.7,20.9c8,-6.2 14.3,-11.1 20.6,-16c0.5,0.5 1,1.1 1.5,1.6c-0.9,1.7 -1.6,3.4 -2.6,5c-8.1,13.2 -8.2,18 2.1,29.6c10.2,11.4 21.2,22 32,32.8c3,3 6.7,5.4 11.2,9c-9.5,4.1 -16.1,3.4 -21.7,-0.8c-6,-4.6 -11.6,-9.9 -16.8,-15.4c-10.4,-10.9 -13.5,-12.6 -27.1,-6.6c-12.7,5.7 -23.3,3.9 -35.6,-2.1c-10.7,-5.2 -23.5,-6.3 -35.5,-8.6c-2.2,-0.4 -6.9,1.8 -7.1,3.3c-0.4,2.9 0.8,6.8 2.7,9.1c1.8,2.3 5.3,3.6 8.3,4.4c5,1.4 10.1,2.3 15.2,3.1c22.9,3.7 45.2,9.3 66.3,19.4c18.2,8.8 37,14.5 57.9,9.7c9.8,-2.3 17.5,2.8 22.1,11.3c4.3,8 7.7,16.5 10.9,25c13.9,36.4 24,73.5 22.9,113c-0.7,24.6 -1.6,49.3 -0.9,73.9c0.9,33.1 3.7,66 18.1,96.7c0.5,1 0.5,2.2 1,4.2c-2.1,-0.8 -3.5,-1.1 -4.7,-1.7c-71.3,-33.8 -145.9,-57 -223.6,-69.9c-48.6,-8.1 -97.5,-10.6 -146.6,-3.8c-5.6,0.8 -7.2,2.8 -7.3,8.4c-1.1,34.8 9.4,66.6 24,97.4c10.9,22.8 24.9,43.5 41.7,63c11.2,-11.2 19.7,-14.9 34.6,-14.1z" class="st1"/>
   </g>
  </g>
 </g>
</svg>