<svg width="3400" height="3400" xmlns="http://www.w3.org/2000/svg">
 <metadata id="metadata16">image/svg+xml</metadata>

 <g>
  <title>background</title>
  <rect fill="none" id="canvas_background" height="3402" width="3402" y="-1" x="-1"/>
 </g>
 <g>
  <title>Layer 1</title>
  <g fill="none" fill-rule="evenodd" transform="matrix(104.32129,0,0,104.32129,379.02279,1163.6932) " id="g8">
   <path fill="#000" id="path2" d="m2.72698,10.66375c-1.82512,0 -3.08378,-1.52916 -3.08378,-3.79058c0,-2.283 1.25866,-3.81217 3.08378,-3.81217c1.82512,0 3.08399,1.52917 3.08399,3.79058c0,2.28301 -1.25887,3.81217 -3.08399,3.81217m0,2.86466c3.37758,0 6.06294,-2.84307 6.06294,-6.67683c0,-3.79058 -2.53847,-6.65524 -6.06294,-6.65524c-3.37757,0 -6.06283,2.84307 -6.06283,6.67683c0,3.85525 2.53836,6.65524 6.06283,6.65524"/>
   <path fill="#000" id="path4" d="m11.28635,8.44536l5.79017,0c0.39853,0 0.62934,-0.23685 0.62934,-0.64621l0,-1.87375c0,-0.40915 -0.23081,-0.646 -0.62934,-0.646l-3.88114,0l0,-7.96915c0,-0.40925 -0.2307,-0.6461 -0.62923,-0.6461l-1.90923,0c-0.39853,0 -0.62923,0.23685 -0.62923,0.6461l0,9.8429c0,0.83988 0.44048,1.29221 1.25866,1.29221"/>
   <path fill="#000" id="path6" d="m19.15347,13.33437l3.48251,-4.11369l3.37757,4.11369c0.29369,0.36618 0.67139,0.36618 1.00694,0.06466l1.3636,-1.22765c0.33565,-0.30162 0.3776,-0.68928 0.06298,-1.03377l-3.75517,-4.30767l3.41953,-3.94139c0.29369,-0.34459 0.27266,-0.71087 -0.06288,-1.03387l-1.2798,-1.18447c-0.33564,-0.32321 -0.71324,-0.30162 -1.00703,0.06445l-3.12574,3.72613l-3.18872,-3.72613c-0.29379,-0.34459 -0.67139,-0.38766 -1.00704,-0.06445l-1.32175,1.20606c-0.33565,0.323 -0.35657,0.66769 -0.04196,1.03376l3.48251,3.9414l-3.79713,4.32926c-0.31482,0.36597 -0.27276,0.73215 0.06288,1.03377l1.32165,1.18457c0.33575,0.30152 0.71325,0.28003 1.00704,-0.06466"/>
  </g>
 </g>
</svg>