<svg width="3020" height="3020" xmlns="http://www.w3.org/2000/svg" preserveAspectRatio="xMidYMid meet">

 <g>
  <title>background</title>
  <rect fill="none" id="canvas_background" height="3022" width="3022" y="-1" x="-1"/>
 </g>
 <g>
  <title>Layer 1</title>
  <g fill="#000000" id="layer101"/>
  <g id="svg_9">
   <g fill="#000000" id="layer102">
    <path id="svg_1" d="m44.03965,2754c-9,-10 -14,-26 -11,-38c2,-12 32,-160 66,-331c34,-170 67,-316 72,-322c8,-10 268,-13 1239,-13c676,0 1229,2 1229,4c0,2 -20,101 -44,221c-30,146 -53,235 -72,273c-55,113 -164,191 -294,212c-42,6 -445,10 -1117,10c-962,0 -1053,-1 -1068,-16z"/>
   </g>
   <g fill="#000000" id="layer103">
    <path id="svg_8" d="m944.03965,1823c-262,-55 -478,-230 -577,-465c-42,-99 -58,-187 -58,-318c0,-242 75,-420 241,-574c81,-75 225,-153 334,-180c128,-32 242,-36 1162,-36c796,0 924,2 936,15c13,12 7,52 -48,325c-35,170 -67,319 -70,330c-6,20 -16,20 -876,20c-936,0 -916,-1 -953,51c-32,46 -11,124 39,147c19,9 188,12 653,12c683,0 714,3 813,56c109,60 179,174 187,304c4,65 -19,223 -44,313c-5,16 -53,17 -837,16c-698,0 -843,-3 -902,-16z"/>
   </g>
  </g>
 </g>
</svg>