<svg width="300" height="300" xmlns="http://www.w3.org/2000/svg">
 <!-- Created with Method Draw - http://github.com/duopixel/Method-Draw/ -->
 <g>
  <title>background</title>
 </g>
 <g>
  <title>Layer 1</title>
  <g stroke="null" transform="matrix(0.09933539271560435,0,0,0.09933539271560435,-8410.961575663277,-6279.9053026720685) " id="svg_19">
   <title id="svg_1" stroke="null" transform="translate(0,-30.079538345336914) translate(-35.23723220825195,0) translate(-1.4551915228366852e-11,-22.003856658935547) translate(-25.776025772094727,-7.275957614183426e-12) translate(-1.4551915228366852e-11,-7.275957614183426e-12) translate(0,-85.09163665771484) translate(-99.67333221435547,0) translate(0,-168.0446319580078) translate(-196.80184936523438,0) translate(0,-1943.3770751953125) translate(-3238.958984375,7.275957614183426e-12) translate(0,401.61822509765625) translate(660.7312622070312,7.275957614183426e-12) translate(-2085.892578125,-1826.775390625) translate(89694,0) translate(0,66893) ">Layer 1</title>
   <g stroke="null" id="svg_2" fill="#000000"/>
   <g stroke="null" id="svg_7">
    <g stroke="null" id="svg_4" fill="#000000">
     <path stroke="null" d="m84716.43091,65973.2461c-9,-10 -14,-26 -11,-38c2,-12 32,-160 66,-331c34,-170 67,-316 72,-322c8,-10 268,-13 1239,-13c676,0 1229,2 1229,4c0,2 -20,101 -44,221c-30,146 -53,235 -72,273c-55,113 -164,191 -294,212c-42,6 -445,10 -1117,10c-962,0 -1053,-1 -1068,-16z" id="svg_3"/>
    </g>
    <g stroke="null" id="svg_6" fill="#000000">
     <path stroke="null" d="m85616.43091,65042.2461c-262,-55 -478,-230 -577,-465c-42,-99 -58,-187 -58,-318c0,-242 75,-420 241,-574c81,-75 225,-153 334,-180c128,-32 242,-36 1162,-36c796,0 924,2 936,15c13,12 7,52 -48,325c-35,170 -67,319 -70,330c-6,20 -16,20 -876,20c-936,0 -916,-1 -953,51c-32,46 -11,124 39,147c19,9 188,12 653,12c683,0 714,3 813,56c109,60 179,174 187,304c4,65 -19,223 -44,313c-5,16 -53,17 -837,16c-698,0 -843,-3 -902,-16z" id="svg_5"/>
    </g>
   </g>
  </g>
 </g>
</svg>